<svg width="329" height="149" viewBox="0 0 329 149" fill="none" xmlns="http://www.w3.org/2000/svg">
<path d="M297.408 72.1433L259.302 63.2955L252.497 60.5731L77.6154 61.9343V146.328L297.408 147.009V72.1433Z" fill="white"/>
<path d="M225.959 138.842C227.053 135.943 227.439 132.825 227.084 129.746C226.729 126.668 225.643 123.719 223.917 121.146C222.144 119.02 219.969 117.265 217.517 115.98C215.065 114.695 212.384 113.907 209.627 113.66L91.2248 112.299C90.5444 112.299 89.8639 111.618 89.1834 111.618C89.0249 111.499 88.8963 111.345 88.8077 111.168C88.7192 110.991 88.6731 110.795 88.6731 110.597C88.6731 110.399 88.7192 110.204 88.8077 110.026C88.8963 109.849 89.0249 109.695 89.1834 109.576C89.8639 108.215 90.5444 107.534 91.9053 107.534L210.988 106.173C218.548 105.334 225.748 102.496 231.848 97.9501C237.947 93.4046 242.726 87.3159 245.692 80.3105L252.497 62.6149C252.497 61.9343 253.177 61.2537 252.497 60.5731C248.798 44.0919 239.82 29.2691 226.929 18.3571C214.037 7.44502 197.937 1.04029 181.074 0.116122C164.21 -0.808051 147.507 3.79885 133.5 13.2368C119.494 22.6747 108.951 36.4277 103.473 52.406C96.3621 47.3262 87.6882 44.9163 78.9763 45.6C70.9812 46.4916 63.5272 50.0767 57.8388 55.7661C52.1504 61.4555 48.566 68.911 47.6745 76.9075C47.2214 81.0006 47.4514 85.1405 48.355 89.1582C35.4188 89.5159 23.1325 94.9075 14.1097 104.186C5.08692 113.465 0.0396012 125.898 0.041406 138.842C-0.0702638 141.357 0.158625 143.875 0.721869 146.328C0.753116 146.86 0.978238 147.361 1.35452 147.737C1.7308 148.114 2.23209 148.339 2.76331 148.37H221.195C222.556 148.37 223.917 147.69 223.917 146.328L225.959 138.842Z" fill="#F48120"/>
<path d="M263.385 62.6149H259.982C259.302 62.6149 258.621 63.2955 257.941 63.9761L253.177 80.3105C252.083 83.2092 251.697 86.3277 252.052 89.4059C252.407 92.4841 253.493 95.4328 255.219 98.006C256.992 100.132 259.167 101.888 261.619 103.172C264.071 104.457 266.752 105.245 269.509 105.493L294.686 106.854C295.367 106.854 296.047 107.534 296.728 107.534C296.886 107.653 297.015 107.807 297.103 107.985C297.192 108.162 297.238 108.357 297.238 108.555C297.238 108.753 297.192 108.949 297.103 109.126C297.015 109.303 296.886 109.457 296.728 109.576C296.047 110.937 295.367 111.618 294.006 111.618L268.148 112.979C260.588 113.818 253.388 116.657 247.288 121.202C241.189 125.748 236.41 131.836 233.444 138.842L232.083 144.967C231.402 145.648 232.083 147.009 233.444 147.009H323.266C323.544 147.049 323.826 147.023 324.092 146.934C324.358 146.846 324.599 146.697 324.797 146.498C324.995 146.3 325.145 146.059 325.233 145.793C325.322 145.527 325.347 145.245 325.308 144.967C326.928 139.201 327.842 133.259 328.03 127.272C327.922 110.157 321.076 93.7738 308.976 81.6717C296.876 69.5695 280.496 62.7228 263.385 62.6149Z" fill="#FAAD3F"/>
</svg>
